name GIL03_free4EmgEnv.mot
datacolumns 51
datarows 11
range 0.35462964 0.36388889
endheader
                time	   rect_fem_l_emgRec	   rect_fem_l_emgEnv	   rect_fem_l_emgAve	   rect_fem_l_emgSDp	   rect_fem_l_emgSDm	   rect_fem_r_emgRec	   rect_fem_r_emgEnv	   rect_fem_r_emgAve	   rect_fem_r_emgSDp	   rect_fem_r_emgSDm	   med_hams_l_emgRec	   med_hams_l_emgEnv	   med_hams_l_emgAve	   med_hams_l_emgSDp	   med_hams_l_emgSDm	   med_hams_r_emgRec	   med_hams_r_emgEnv	   med_hams_r_emgAve	   med_hams_r_emgSDp	   med_hams_r_emgSDm	   lat_hams_l_emgRec	   lat_hams_l_emgEnv	   lat_hams_l_emgAve	   lat_hams_l_emgSDp	   lat_hams_l_emgSDm	   lat_hams_r_emgRec	   lat_hams_r_emgEnv	   lat_hams_r_emgAve	   lat_hams_r_emgSDp	   lat_hams_r_emgSDm	    tib_ant_l_emgRec	    tib_ant_l_emgEnv	    tib_ant_l_emgAve	    tib_ant_l_emgSDp	    tib_ant_l_emgSDm	    tib_ant_r_emgRec	    tib_ant_r_emgEnv	    tib_ant_r_emgAve	    tib_ant_r_emgSDp	    tib_ant_r_emgSDm	    gas_sol_l_emgRec	    gas_sol_l_emgEnv	    gas_sol_l_emgAve	    gas_sol_l_emgSDp	    gas_sol_l_emgSDm	    gas_sol_r_emgRec	    gas_sol_r_emgEnv	    gas_sol_r_emgAve	    gas_sol_r_emgSDp	    gas_sol_r_emgSDm	
          0.35462964	          0.00271788	          0.07288065	          0.20466086	          0.43625414	         -0.02693242	          0.05074672	          0.12736990	          0.08762499	          0.11949463	          0.05575535	          0.02586204	          0.20492509	          0.23149121	          0.37256058	          0.09042184	          0.14132144	          0.33537117	          0.17022850	          0.29054536	          0.04991163	          0.04485447	          0.51571940	          0.31521058	          0.49445653	          0.13596463	          0.01160465	          0.42475414	          0.29253298	          0.56212801	          0.02293795	          0.05823870	          0.05514121	          0.14484884	          0.38280611	         -0.09310843	          0.04619594	          0.28081091	          0.17542949	          0.27065302	          0.08020597	          0.01465433	          0.10106621	          0.09654261	          0.15823667	          0.03484856	          0.08552945	          0.28200249	          0.61429930	          0.85020393	          0.37839466	
          0.35555553	          0.00394572	          0.07263795	          0.20619540	          0.43825081	         -0.02586001	          0.04665535	          0.12334988	          0.08748515	          0.11897849	          0.05599181	          0.18217866	          0.20728712	          0.23387943	          0.37617788	          0.09158099	          0.10855646	          0.33757330	          0.16934487	          0.28954986	          0.04913989	          0.06894226	          0.51606828	          0.31855646	          0.49865028	          0.13846263	          0.05893683	          0.42530391	          0.29110345	          0.56140250	          0.02080441	          0.05578875	          0.05609178	          0.14576498	          0.38486600	         -0.09333605	          0.07790369	          0.27817404	          0.17515650	          0.26986735	          0.08044565	          0.00275910	          0.10141345	          0.09675471	          0.15855506	          0.03495437	          0.07272351	          0.29445637	          0.61912817	          0.85207452	          0.38618182	
          0.35648149	          0.00608522	          0.07251253	          0.20771363	          0.44020124	         -0.02477397	          0.04061744	          0.11942220	          0.08735729	          0.11850793	          0.05620665	          0.23196091	          0.20957131	          0.23627132	          0.37979767	          0.09274498	          0.08324911	          0.33982388	          0.16846733	          0.28856301	          0.04837164	          0.16193698	          0.51632676	          0.32192028	          0.50285645	          0.14098410	          0.06389530	          0.42587393	          0.28967583	          0.56065300	          0.01869866	          0.02981136	          0.05716078	          0.14676741	          0.38698821	         -0.09345339	          0.07375813	          0.27549986	          0.17491433	          0.26910020	          0.08072846	          0.01248797	          0.10173266	          0.09696515	          0.15886533	          0.03506497	          0.23344229	          0.30715761	          0.62391055	          0.85387281	          0.39394829	
          0.35740739	          0.00327911	          0.07250256	          0.20921502	          0.44210467	         -0.02367464	          0.02353634	          0.11559029	          0.08724075	          0.11808138	          0.05640012	          0.15855078	          0.21177653	          0.23866619	          0.38341892	          0.09391347	          0.04832842	          0.34211483	          0.16759643	          0.28758588	          0.04760698	          0.22342098	          0.51650458	          0.32530117	          0.50707385	          0.14352849	          0.10382191	          0.42645656	          0.28824994	          0.55987802	          0.01662186	          0.00976046	          0.05834668	          0.14785577	          0.38917227	         -0.09346072	          0.03638334	          0.27279480	          0.17470251	          0.26835120	          0.08105382	          0.01737223	          0.10202497	          0.09717393	          0.15916748	          0.03518038	          0.23726650	          0.32009497	          0.62864369	          0.85560028	          0.40168710	
          0.35833335	          0.01505354	          0.07260591	          0.21069953	          0.44396102	         -0.02256197	          0.00732934	          0.11185746	          0.08713488	          0.11769714	          0.05657261	          0.04064226	          0.21390193	          0.24106389	          0.38704148	          0.09508631	          0.02569054	          0.34443810	          0.16673264	          0.28661928	          0.04684599	          0.09536266	          0.51661172	          0.32869920	          0.51130255	          0.14609586	          0.15781810	          0.42704410	          0.28682509	          0.55907577	          0.01457441	          0.00068273	          0.05964790	          0.14903004	          0.39141798	         -0.09335789	          0.00774884	          0.27006519	          0.17452039	          0.26761970	          0.08142108	          0.02733290	          0.10229154	          0.09738111	          0.15946158	          0.03530065	          0.07879066	          0.33325647	          0.63332611	          0.85725892	          0.40939331	
          0.35925925	          0.02791054	          0.07282020	          0.21216682	          0.44576979	         -0.02143615	          0.00263749	          0.10822683	          0.08703898	          0.11735352	          0.05672444	          0.05337098	          0.21594694	          0.24346377	          0.39066437	          0.09626317	          0.09322770	          0.34678564	          0.16587654	          0.28566435	          0.04608873	          0.18009729	          0.51665834	          0.33211339	          0.51554132	          0.14868546	          0.03636484	          0.42762890	          0.28540087	          0.55824447	          0.01255727	          0.01519836	          0.06106283	          0.15028988	          0.39372477	         -0.09314501	          0.01006867	          0.26731729	          0.17436749	          0.26690534	          0.08182964	          0.03604057	          0.10253357	          0.09758671	          0.15974766	          0.03542577	          0.08162645	          0.34662950	          0.63795483	          0.85885014	          0.41705953	
          0.36018521	          0.03389285	          0.07314280	          0.21361682	          0.44753084	         -0.02029720	         -0.00017718	          0.10470139	          0.08695234	          0.11704864	          0.05685603	          0.09556077	          0.21791134	          0.24586575	          0.39428751	          0.09744398	          0.13936300	          0.34914951	          0.16502853	          0.28472188	          0.04533517	          0.34528687	          0.51665475	          0.33554378	          0.51979016	          0.15129741	          0.16252279	          0.42820337	          0.28397664	          0.55738238	          0.01057091	          0.02282225	          0.06258985	          0.15163516	          0.39609250	         -0.09282219	          0.02159831	          0.26455723	          0.17424309	          0.26620743	          0.08227876	          0.03051726	          0.10275230	          0.09779082	          0.16002581	          0.03555584	          0.02665684	          0.36020072	          0.64252871	          0.86037657	          0.42468086	
          0.36111110	          0.02586767	          0.07357081	          0.21504912	          0.44924359	         -0.01914535	          0.00410552	          0.10128395	          0.08687425	          0.11678074	          0.05696775	          0.13081791	          0.21979519	          0.24826907	          0.39790976	          0.09862837	          0.04723557	          0.35152183	          0.16418923	          0.28379309	          0.04458538	          0.27003984	          0.51661130	          0.33898947	          0.52404796	          0.15393098	          0.21801308	          0.42876004	          0.28255194	          0.55648759	          0.00861630	          0.00714766	          0.06422727	          0.15306541	          0.39852040	         -0.09238957	          0.01193846	          0.26179104	          0.17414661	          0.26552547	          0.08276775	          0.01444700	          0.10294898	          0.09799340	          0.16029601	          0.03569080	          0.05260814	          0.37395616	          0.64704472	          0.86183962	          0.43224981	
          0.36203703	          0.01631594	          0.07410109	          0.21646371	          0.45090806	         -0.01798064	          0.04662511	          0.09797717	          0.08680395	          0.11654787	          0.05706003	          0.21147286	          0.22159888	          0.25067365	          0.40153110	          0.09981620	          0.06807573	          0.35389491	          0.16335918	          0.28287897	          0.04383939	          0.06301279	          0.51653841	          0.34245020	          0.52831437	          0.15658604	          0.18752462	          0.42929158	          0.28112611	          0.55555829	          0.00669393	          0.00064637	          0.06597338	          0.15458046	          0.40100825	         -0.09184733	          0.01773185	          0.25902460	          0.17407736	          0.26485889	          0.08329584	          0.00759222	          0.10312492	          0.09819456	          0.16055840	          0.03583073	          0.00413286	          0.38788120	          0.65150130	          0.86324185	          0.43976074	
          0.36296296	          0.01457865	          0.07473026	          0.21786034	          0.45252383	         -0.01680315	          0.07390310	          0.09478355	          0.08674069	          0.11634809	          0.05713330	          0.22798640	          0.22332312	          0.25307885	          0.40515055	          0.10100715	          0.11889804	          0.35626122	          0.16253878	          0.28198048	          0.04309708	          0.04835842	          0.51644646	          0.34592545	          0.53258865	          0.15926225	          0.18990069	          0.42979086	          0.27969864	          0.55459267	          0.00480461	          0.00469636	          0.06782644	          0.15617992	          0.40355557	         -0.09119573	          0.02570554	          0.25626368	          0.17403457	          0.26420698	          0.08386216	          0.00860044	          0.10328142	          0.09839428	          0.16081296	          0.03597561	          0.04845991	          0.40196059	          0.65589619	          0.86458524	          0.44720714	
          0.36388889	          0.00356653	          0.07545473	          0.21923888	          0.45409080	         -0.01561305	          0.07610111	          0.09170542	          0.08668376	          0.11617952	          0.05718799	          0.10383342	          0.22496893	          0.25548434	          0.40876767	          0.10220101	          0.17952709	          0.35861344	          0.16172862	          0.28109862	          0.04235862	          0.02849489	          0.51634574	          0.34941474	          0.53687029	          0.16195919	          0.04577103	          0.43025095	          0.27826881	          0.55358893	          0.00294870	          0.05342864	          0.06978465	          0.15786341	          0.40616177	         -0.09043495	         -0.00019885	          0.25351387	          0.17401762	          0.26356924	          0.08446600	          0.00685223	          0.10341982	          0.09859263	          0.16105980	          0.03612546	          0.06478736	          0.41617844	          0.66022712	          0.86587174	          0.45458250	
